<mxfile host="app.diagrams.net" modified="2023-07-10T02:12:08.767Z" agent="Mozilla/5.0 (Windows NT 10.0; Win64; x64) AppleWebKit/537.36 (KHTML, like Gecko) Chrome/114.0.0.0 Safari/537.36 Edg/114.0.1823.67" version="21.6.1" etag="WaHOAdnCBQ8TwB97v_VI" type="github">
  <diagram name="페이지-1" id="OtSnZ7Fpmzid03wB0cTe">
    <mxGraphModel>
      <root>
        <mxCell id="0" />
        <mxCell id="1" parent="0" />
      </root>
    </mxGraphModel>
  </diagram>
</mxfile>
